<svg xmlns="http://www.w3.org/2000/svg" xmlns:xlink="http://www.w3.org/1999/xlink" width="500" zoomAndPan="magnify" viewBox="0 0 375 374.999991" height="500" preserveAspectRatio="xMidYMid meet" version="1.0"><defs><g/></defs><g fill="#2a2a2e" fill-opacity="1"><g transform="translate(26.15527, 231.109116)"><g><path d="M 10.59375 -140 L 53.40625 -140 C 53.664062 -140 53.796875 -139.800781 53.796875 -139.40625 C 53.796875 -139.132812 53.664062 -139 53.40625 -139 C 49.800781 -139 46.765625 -137.734375 44.296875 -135.203125 C 41.828125 -132.671875 40.59375 -129.671875 40.59375 -126.203125 L 40.59375 -13.40625 C 40.59375 -10.46875 39.789062 -7.863281 38.1875 -5.59375 C 36.59375 -3.332031 34.53125 -1.664062 32 -0.59375 L 81.40625 -0.59375 C 86.738281 -0.59375 91.570312 -1.894531 95.90625 -4.5 C 100.238281 -7.101562 103.703125 -10.570312 106.296875 -14.90625 C 108.898438 -19.238281 110.203125 -24.070312 110.203125 -29.40625 C 110.203125 -29.664062 110.398438 -29.796875 110.796875 -29.796875 C 111.203125 -29.796875 111.40625 -29.664062 111.40625 -29.40625 L 111.40625 0 C 111.40625 0.394531 111.203125 0.59375 110.796875 0.59375 L 10.59375 0.59375 C 10.195312 0.59375 10 0.394531 10 0 C 10 -0.394531 10.195312 -0.59375 10.59375 -0.59375 C 14.0625 -0.59375 17.03125 -1.789062 19.5 -4.1875 C 21.96875 -6.59375 23.269531 -9.53125 23.40625 -13 L 23.40625 -126.40625 C 23.269531 -130 21.96875 -132.992188 19.5 -135.390625 C 17.03125 -137.796875 14.0625 -139 10.59375 -139 C 10.195312 -139 10 -139.132812 10 -139.40625 C 10 -139.800781 10.195312 -140 10.59375 -140 Z M 10.59375 -140 "/></g></g></g><g fill="#2a2a2e" fill-opacity="1"><g transform="translate(223.808589, 231.109116)"><g><path d="M 10.59375 -0.59375 C 14.0625 -0.59375 17.460938 -1.859375 20.796875 -4.390625 C 24.128906 -6.929688 26.332031 -9.9375 27.40625 -13.40625 L 58.40625 -112.40625 L 66.796875 -139.59375 C 66.796875 -139.59375 66.796875 -139.660156 66.796875 -139.796875 C 66.929688 -139.796875 67 -139.796875 67 -139.796875 C 67 -139.796875 67 -139.863281 67 -140 C 67 -140 67.066406 -140 67.203125 -140 C 67.335938 -140 67.40625 -140 67.40625 -140 C 67.53125 -140 67.59375 -140 67.59375 -140 C 67.59375 -139.863281 67.59375 -139.796875 67.59375 -139.796875 C 67.59375 -139.796875 67.660156 -139.796875 67.796875 -139.796875 C 67.796875 -139.660156 67.796875 -139.59375 67.796875 -139.59375 L 107 -13.40625 C 108.195312 -9.9375 110.425781 -6.929688 113.6875 -4.390625 C 116.957031 -1.859375 120.394531 -0.59375 124 -0.59375 C 124.394531 -0.59375 124.59375 -0.394531 124.59375 0 C 124.59375 0.394531 124.394531 0.59375 124 0.59375 L 80.40625 0.59375 C 80.132812 0.59375 80 0.394531 80 0 C 80 -0.394531 80.132812 -0.59375 80.40625 -0.59375 C 83.863281 -0.59375 86.394531 -1.726562 88 -4 C 89.863281 -6.394531 90.265625 -9.460938 89.203125 -13.203125 L 89 -13.203125 L 58.796875 -110.40625 L 28.40625 -13.203125 C 27.332031 -9.460938 27.726562 -6.394531 29.59375 -4 C 31.332031 -1.726562 33.867188 -0.59375 37.203125 -0.59375 C 37.460938 -0.59375 37.59375 -0.394531 37.59375 0 C 37.59375 0.394531 37.460938 0.59375 37.203125 0.59375 L 10.59375 0.59375 C 10.195312 0.59375 10 0.394531 10 0 C 10 -0.394531 10.195312 -0.59375 10.59375 -0.59375 Z M 10.59375 -0.59375 "/></g></g></g><g fill="#2a2a2e" fill-opacity="1"><g transform="translate(135.551648, 277.409336)"><g><path d="M 1.46875 0 L 1.46875 -12.78125 L 2.859375 -12.78125 L 2.859375 -7.109375 L 10.046875 -7.109375 L 10.046875 -12.78125 L 11.4375 -12.78125 L 11.4375 0 L 10.046875 0 L 10.046875 -5.890625 L 2.859375 -5.890625 L 2.859375 0 Z M 1.46875 0 "/></g></g></g><g fill="#2a2a2e" fill-opacity="1"><g transform="translate(152.836803, 277.409336)"><g/></g></g><g fill="#2a2a2e" fill-opacity="1"><g transform="translate(161.315374, 277.409336)"><g/></g></g><g fill="#2a2a2e" fill-opacity="1"><g transform="translate(169.805552, 277.409336)"><g><path d="M 0.21875 0 L 5.53125 -12.78125 L 6.734375 -12.78125 L 11.828125 0 L 10.421875 0 L 9.09375 -3.421875 L 3.03125 -3.421875 L 1.640625 0 Z M 3.484375 -4.59375 L 8.640625 -4.59375 L 6.125 -11.0625 Z M 3.484375 -4.59375 "/></g></g></g><g fill="#2a2a2e" fill-opacity="1"><g transform="translate(186.305551, 277.409336)"><g/></g></g><g fill="#2a2a2e" fill-opacity="1"><g transform="translate(194.784122, 277.409336)"><g/></g></g><g fill="#2a2a2e" fill-opacity="1"><g transform="translate(203.2743, 277.409336)"><g><path d="M 1.46875 0 L 1.46875 -12.78125 L 2.859375 -12.78125 L 2.859375 0 Z M 1.46875 0 "/></g></g></g><g fill="#2a2a2e" fill-opacity="1"><g transform="translate(211.993049, 277.409336)"><g/></g></g><g fill="#2a2a2e" fill-opacity="1"><g transform="translate(220.47162, 277.409336)"><g/></g></g><g fill="#2a2a2e" fill-opacity="1"><g transform="translate(228.961798, 277.409336)"><g><path d="M 10.6875 -1.390625 L 11 -0.3125 C 10.625 -0.03125 10.128906 0.109375 9.515625 0.109375 C 9.003906 0.109375 8.535156 -0.0078125 8.109375 -0.25 C 7.691406 -0.488281 7.285156 -0.894531 6.890625 -1.46875 L 4.5 -5 C 4.34375 -5.226562 4.15625 -5.414062 3.9375 -5.5625 C 3.726562 -5.71875 3.507812 -5.796875 3.28125 -5.796875 L 2.84375 -5.796875 L 2.84375 0 L 1.46875 0 L 1.46875 -12.78125 L 5.078125 -12.78125 C 6.503906 -12.78125 7.597656 -12.46875 8.359375 -11.84375 C 9.117188 -11.226562 9.5 -10.390625 9.5 -9.328125 C 9.5 -8.554688 9.3125 -7.910156 8.9375 -7.390625 C 8.5625 -6.878906 8.054688 -6.488281 7.421875 -6.21875 C 6.785156 -5.957031 6.082031 -5.828125 5.3125 -5.828125 L 5.203125 -5.828125 C 5.535156 -5.660156 5.878906 -5.320312 6.234375 -4.8125 L 7.90625 -2.359375 C 8.132812 -2.015625 8.332031 -1.75 8.5 -1.5625 C 8.675781 -1.382812 8.859375 -1.257812 9.046875 -1.1875 C 9.234375 -1.125 9.460938 -1.09375 9.734375 -1.09375 C 9.921875 -1.09375 10.085938 -1.117188 10.234375 -1.171875 C 10.390625 -1.234375 10.539062 -1.304688 10.6875 -1.390625 Z M 4.96875 -11.625 L 2.84375 -11.625 L 2.84375 -6.90625 L 4.8125 -6.90625 C 5.863281 -6.90625 6.675781 -7.09375 7.25 -7.46875 C 7.832031 -7.851562 8.125 -8.457031 8.125 -9.28125 C 8.125 -10.019531 7.867188 -10.59375 7.359375 -11 C 6.859375 -11.414062 6.0625 -11.625 4.96875 -11.625 Z M 4.96875 -11.625 "/></g></g></g><g fill="#2a2a2e" fill-opacity="1"><g transform="translate(155.595308, 231.109116)"><g><path d="M 10.59375 -0.59375 C 14.0625 -0.59375 17.0625 -1.828125 19.59375 -4.296875 C 22.132812 -6.765625 23.40625 -9.800781 23.40625 -13.40625 L 23.40625 -126.203125 C 23.40625 -129.671875 22.132812 -132.671875 19.59375 -135.203125 C 17.0625 -137.734375 14.0625 -139 10.59375 -139 C 10.195312 -139 10 -139.132812 10 -139.40625 C 10 -139.800781 10.195312 -140 10.59375 -140 L 53.40625 -140 C 53.664062 -140 53.796875 -139.800781 53.796875 -139.40625 C 53.796875 -139.132812 53.664062 -139 53.40625 -139 C 49.800781 -139 46.765625 -137.734375 44.296875 -135.203125 C 41.828125 -132.671875 40.59375 -129.671875 40.59375 -126.203125 L 40.59375 -13.40625 C 40.59375 -9.800781 41.828125 -6.765625 44.296875 -4.296875 C 46.765625 -1.828125 49.800781 -0.59375 53.40625 -0.59375 C 53.664062 -0.59375 53.796875 -0.394531 53.796875 0 C 53.796875 0.394531 53.664062 0.59375 53.40625 0.59375 L 10.59375 0.59375 C 10.195312 0.59375 10 0.394531 10 0 C 10 -0.394531 10.195312 -0.59375 10.59375 -0.59375 Z M 10.59375 -0.59375 "/></g></g></g></svg>